<mxfile host="app.diagrams.net" modified="2023-07-13T03:00:03.505Z" agent="Mozilla/5.0 (Windows NT 10.0; WOW64) AppleWebKit/537.36 (KHTML, like Gecko) Chrome/92.0.4515.159 Safari/537.36" version="21.2.9" etag="c2i7NZS5QSvMr7XCx-BU" type="github">
  <diagram name="第 1 页" id="p5-ZUMt980I5F0xZYJBz">
    <mxGraphModel>
      <root>
        <mxCell id="0" />
        <mxCell id="1" parent="0" />
      </root>
    </mxGraphModel>
  </diagram>
</mxfile>
